<?xml version="1.0" encoding="utf-8"?>
<!-- Generator: Adobe Illustrator 27.5.0, SVG Export Plug-In . SVG Version: 6.00 Build 0)  -->
<svg version="1.1" id="BACKGROUND" xmlns="http://www.w3.org/2000/svg" xmlns:xlink="http://www.w3.org/1999/xlink" x="0px" y="0px"
	 viewBox="0 0 750 500" style="enable-background:new 0 0 750 500;" xml:space="preserve">
<g>
	<defs>
		<rect id="SVGID_1_" width="750" height="500"/>
	</defs>
	<clipPath id="SVGID_00000052089001876898860390000002239953010149495450_">
		<use xlink:href="#SVGID_1_"  style="overflow:visible;"/>
	</clipPath>
	<g style="clip-path:url(#SVGID_00000052089001876898860390000002239953010149495450_);">
		<path style="fill:#E68789;" d="M375-104.018C87.082-651.575-618.98-219.293-280.359,295.574
			C-119.28,540.49,245.585,540.804,375,841.288c129.415-300.484,494.28-300.798,655.359-545.714
			C1368.98-219.293,662.918-651.575,375-104.018z"/>
		<path style="fill:#ECA5A6;" d="M375-61.072C122.866-540.576-495.443-162.02-198.908,288.857
			C-57.849,503.334,261.669,503.608,375,766.747c113.33-263.139,432.849-263.413,573.908-477.89
			C1245.443-162.02,627.134-540.576,375-61.072z"/>
		<path style="fill:#F2C2C3;" d="M375-37.647c-232.616-442.385-803.06-93.133-529.48,322.84
			C-24.341,483.067,270.443,483.32,375,726.088C479.557,483.32,774.341,483.067,904.48,285.193
			C1178.06-130.78,607.616-480.031,375-37.647z"/>
		<path style="fill:#F9E6E7;" d="M375-2.243C171.883-388.527-326.22-83.566-87.334,279.656
			C26.302,452.436,283.702,452.657,375,664.639c91.298-211.982,348.698-212.203,462.334-384.983
			C1076.22-83.566,578.117-388.527,375-2.243z"/>
		<path style="fill:#FEFEFE;" d="M375,20.797C191.081-328.978-259.944-52.84-43.637,276.052
			C59.259,432.502,292.331,432.702,375,624.649c82.669-191.946,315.741-192.146,418.637-348.597
			C1009.944-52.84,558.919-328.978,375,20.797z"/>
		<path style="fill:#E68789;" d="M375,30.026C198.771-305.124-233.396-40.532-26.133,274.608
			C72.46,424.517,295.788,424.709,375,608.63c79.212-183.921,302.54-184.113,401.133-334.021
			C983.396-40.532,551.229-305.124,375,30.026z"/>
		<path style="fill:#ECA5A6;" d="M375,61.259C224.795-224.397-143.552,1.121,33.104,269.723
			C117.138,397.494,307.485,397.658,375,554.418c67.515-156.76,257.862-156.924,341.896-284.695
			C893.552,1.121,525.205-224.397,375,61.259z"/>
		<path style="fill:#F2C2C3;" d="M375,92.612C250.919-143.363-53.365,42.933,92.567,264.819
			C161.985,370.368,319.227,370.504,375,500c55.772-129.496,213.015-129.632,282.433-235.181
			C803.365,42.933,499.081-143.363,375,92.612z"/>
		<path style="fill:#FEFEFE;" d="M375,121.334C274.851-69.126,29.257,81.237,147.042,260.327
			c56.029,85.191,182.943,85.3,227.958,189.82c45.015-104.52,171.929-104.629,227.958-189.82
			C720.743,81.237,475.149-69.126,375,121.334z"/>
		<path style="fill:#F9E6E7;" d="M375,128.665C280.96-50.179,50.345,91.014,160.946,259.18
			C213.557,339.175,332.73,339.278,375,437.422c42.27-98.145,161.443-98.247,214.054-178.242
			C699.655,91.014,469.04-50.179,375,128.665z"/>
		<g>
			<path style="fill:#F2C2C3;" d="M375,144.548C294.194-9.127,96.034,112.196,191.07,256.696
				c45.207,68.737,147.609,68.825,183.93,153.158c36.321-84.333,138.722-84.421,183.93-153.158
				C653.966,112.196,455.806-9.127,375,144.548z"/>
			<path style="fill:#ECA5A6;" d="M375,168.025c-61.245-116.474-211.435-24.521-139.405,84.999
				C269.859,305.122,347.471,305.188,375,369.106c27.528-63.918,105.141-63.984,139.405-116.082
				C586.435,143.504,436.245,51.551,375,168.025z"/>
			<path style="fill:#E68789;" d="M375,191.501c-41.684-79.273-143.904-16.689-94.88,57.851
				c23.32,35.458,76.144,35.503,94.88,79.006c18.736-43.503,71.56-43.548,94.88-79.006C518.904,174.812,416.684,112.228,375,191.501
				z"/>
		</g>
		<path style="fill:#F9E6E7;" d="M375,200.508c-34.178-65-117.994-13.684-77.797,47.435c19.121,29.074,62.434,29.111,77.797,64.781
			c15.363-35.67,58.675-35.707,77.797-64.781C492.994,186.824,409.178,135.508,375,200.508z"/>
	</g>
</g>
</svg>
